[IMG]http://img862.imageshack.us/img862/5103/elevatort.jpg[/IMG]
[code]
Elevator 2011 R5 DVDRip XviD AC3-26K

Imdb: 
http://www.imdb.com/title/tt1728975/

Plot:
Racism collides with corporate greed when nine strangers are trapped in a Wall Street elevator, and one 

of them has a bomb. They will do anything to survive.

Sources:
DVDR THNXS!

Notes:
ENJOY :)

Greetz:
Xtreme Encode|FYA|ILLUMANTI|CM8|RX|VISION|HDSCENE|NIGHTMAREZ|xTriLL|DTRG|CRYS|REMIXHD|BIDA|RX|REFILL|

INSPiRAL|SIC|ZOMBIESZ|HOPE|Anonymous|GooN
To all the people who have helped me :P you know who you are

Anything to offer email us @: 26k@hushmail.me

Video
ID                                       : 0
Format                                   : MPEG-4 Visual
Format profile                           : Advanced Simple@L5
Format settings, BVOP                    : 2
Format settings, QPel                    : No
Format settings, GMC                     : No warppoints
Format settings, Matrix                  : Default (H.263)
Muxing mode                              : Packed bitstream
Codec ID                                 : XVID
Codec ID/Hint                            : XviD
Duration                                 : 1h 20mn
Bit rate                                 : 1 005 Kbps
Width                                    : 720 pixels
Height                                   : 300 pixels
Display aspect ratio                     : 2.40:1
Frame rate                               : 25.000 fps
Color space                              : YUV
Chroma subsampling                       : 4:2:0
Bit depth                                : 8 bits
Scan type                                : Progressive
Compression mode                         : Lossy
Bits/(Pixel*Frame)                       : 0.186
Stream size                              : 580 MiB (72%)
Writing library                          : XviD 1.2.1 (UTC 2008-12-04)

Audio
ID                                       : 1
Format                                   : AC-3
Format/Info                              : Audio Coding 3
Mode extension                           : CM (complete main)
Codec ID                                 : 2000
Duration                                 : 1h 20mn
Bit rate mode                            : Constant
Bit rate                                 : 384 Kbps
Channel(s)                               : 6 channels
Channel positions                        : Front: L C R, Side: L R, LFE
Sampling rate                            : 48.0 KHz
Bit depth                                : 16 bits
Compression mode                         : Lossy
Stream size                              : 222 MiB (27%)
Alignment                                : Aligned on interleaves
Interleave, duration                     : 32 ms (0.80 video frame)

[/code]
Screens:
[IMG]http://i.imgur.com/k61LA.png[/IMG]
[IMG]http://i.imgur.com/NdRf4.png[/IMG]
[IMG]http://img806.imageshack.us/img806/5895/vlcsnap2012030118h24m23.png[/IMG]
[IMG]http://img94.imageshack.us/img94/82/vlcsnap2012030118h24m32.png[/IMG]
[IMG]http://img138.imageshack.us/img138/3048/vlcsnap2012030118h24m45.png[/IMG]
[IMG]http://img833.imageshack.us/img833/9600/vlcsnap2012030118h24m55.png[/IMG]

[img]http://img851.imageshack.us/img851/5503/26ks.jpg[/img]
Thank you smallz for banner!